<svg width="157" height="35" viewBox="0 0 157 35" fill="none" xmlns="http://www.w3.org/2000/svg">
<path fill-rule="evenodd" clip-rule="evenodd" d="M19.5792 34.7431H35.1859C35.3639 29.7967 35.454 22.3957 35.454 17.3716C35.454 12.3474 35.3727 10.712 35.624 0.0238975L28.0459 0C26.4547 6.68909 19.523 20.1283 18.1768 24.9483C17.5869 27.0604 19.3535 32.2232 19.5792 34.7431Z" fill="#009DE2"/>
<path fill-rule="evenodd" clip-rule="evenodd" d="M144.474 5.34232C151.072 5.34232 156.422 10.6639 156.422 17.2285C156.422 23.793 151.072 29.1146 144.474 29.1146C137.875 29.1146 132.525 23.793 132.525 17.2285C132.525 10.6639 137.875 5.34232 144.474 5.34232ZM144.474 11.9512C147.403 11.9512 149.778 14.3139 149.778 17.2285C149.778 20.143 147.403 22.5057 144.474 22.5057C141.544 22.5057 139.169 20.143 139.169 17.2285C139.169 14.3139 141.544 11.9512 144.474 11.9512Z" fill="#FFC700"/>
<path fill-rule="evenodd" clip-rule="evenodd" d="M0.393209 0.526373C0.0531022 0.936089 0.0578435 1.48636 0 1.99607V5.26405C3.86224 9.04865 9.64311 15.9399 12.7 18.9507L19.5533 0H3.37168C1.94266 0.106595 0.690013 -0.0996776 0.393209 0.526373Z" fill="#009DE2"/>
<path fill-rule="evenodd" clip-rule="evenodd" d="M1.58738 34.7431H11.1126C11.1088 30.662 10.091 27.1202 7.27627 24.3462C5.68068 22.774 1.26276 17.6763 0 16.8452V33.6577C0.144135 34.3224 0.55062 34.7431 1.58738 34.7431Z" fill="#FFC700"/>
<path fill-rule="evenodd" clip-rule="evenodd" d="M111.194 5.81494H132.302V12.5892H111.194V5.81494ZM125.649 29.0603H117.666V12.5892H125.649V29.0603Z" fill="#FFC700"/>
<path fill-rule="evenodd" clip-rule="evenodd" d="M64.8027 5.75931H72.4175V29.0408H64.8027V5.75931ZM72.4175 5.75931H85.1343V12.4311H72.4175V5.75931ZM81.9646 14.2703H72.4175V20.4185H81.9646V14.2703ZM72.4175 22.3687H85.1343V29.0402H72.4175V22.3687Z" fill="#FFC700"/>
<path fill-rule="evenodd" clip-rule="evenodd" d="M87.0763 5.70898L95.5322 5.74263L101.35 16.106L101.316 5.70898L109.197 5.77627L109.19 29.0291L100.938 29.059L94.9572 18.4278V28.993L86.9748 29.0266L87.0763 5.70898Z" fill="#FFC700"/>
<path fill-rule="evenodd" clip-rule="evenodd" d="M39.5646 5.74356L47.9542 5.76054L51.592 13.5266L55.3139 5.75079L63.626 5.77312L55.5728 21.0065L55.6413 29.0515L47.6713 29.053L47.7376 21.3838L39.5646 5.74356Z" fill="#FFC700"/>
</svg>
